<svg 
 xmlns="http://www.w3.org/2000/svg"
 xmlns:xlink="http://www.w3.org/1999/xlink"
 width="20px" height="21px">
<defs>
<filter id="Filter_0">
    <feFlood flood-color="rgb(30, 38, 51)" flood-opacity="1" result="floodOut" />
    <feComposite operator="atop" in="floodOut" in2="SourceGraphic" result="compOut" />
    <feBlend mode="normal" in="compOut" in2="SourceGraphic" />
</filter>

</defs>
<g filter="url(#Filter_0)">
<path fill-rule="evenodd"  fill="rgb(0, 0, 0)"
 d="M19.544,3.445 C19.240,3.148 18.879,3.000 18.462,3.000 L16.924,3.000 L16.924,1.875 C16.924,1.359 16.736,0.918 16.359,0.551 C15.982,0.183 15.530,-0.000 15.001,-0.000 L14.231,-0.000 C13.702,-0.000 13.250,0.183 12.873,0.551 C12.496,0.918 12.308,1.359 12.308,1.875 L12.308,3.000 L7.692,3.000 L7.692,1.875 C7.692,1.359 7.504,0.918 7.127,0.551 C6.751,0.183 6.298,-0.000 5.769,-0.000 L5.000,-0.000 C4.471,-0.000 4.018,0.183 3.641,0.551 C3.265,0.918 3.076,1.359 3.076,1.875 L3.076,3.000 L1.538,3.000 C1.121,3.000 0.761,3.148 0.456,3.445 C0.152,3.742 -0.001,4.094 -0.001,4.500 L-0.001,19.500 C-0.001,19.906 0.152,20.258 0.456,20.555 C0.761,20.852 1.121,21.000 1.538,21.000 L18.462,21.000 C18.879,21.000 19.240,20.852 19.544,20.555 C19.848,20.258 20.001,19.906 20.001,19.500 L20.001,4.500 C20.001,4.093 19.848,3.742 19.544,3.445 ZM5.000,19.500 L1.538,19.500 L1.538,16.125 L5.000,16.125 L5.000,19.500 ZM5.000,15.375 L1.538,15.375 L1.538,11.625 L5.000,11.625 L5.000,15.375 ZM5.000,10.875 L1.538,10.875 L1.538,7.500 L5.000,7.500 L5.000,10.875 ZM4.729,5.513 C4.653,5.439 4.615,5.352 4.615,5.250 L4.615,1.875 C4.615,1.773 4.653,1.685 4.729,1.611 C4.806,1.537 4.896,1.500 5.000,1.500 L5.769,1.500 C5.873,1.500 5.963,1.537 6.039,1.611 C6.116,1.685 6.154,1.773 6.154,1.875 L6.154,5.250 C6.154,5.352 6.115,5.439 6.039,5.513 C5.963,5.588 5.873,5.625 5.769,5.625 L5.000,5.625 C4.896,5.625 4.806,5.588 4.729,5.513 ZM9.615,19.500 L5.769,19.500 L5.769,16.125 L9.615,16.125 L9.615,19.500 ZM9.615,15.375 L5.769,15.375 L5.769,11.625 L9.615,11.625 L9.615,15.375 ZM9.615,10.875 L5.769,10.875 L5.769,7.500 L9.615,7.500 L9.615,10.875 ZM14.231,19.500 L10.385,19.500 L10.385,16.125 L14.231,16.125 L14.231,19.500 ZM14.231,15.375 L10.385,15.375 L10.385,11.625 L14.231,11.625 L14.231,15.375 ZM14.231,10.875 L10.385,10.875 L10.385,7.500 L14.231,7.500 L14.231,10.875 ZM13.961,5.513 C13.885,5.439 13.847,5.352 13.847,5.250 L13.847,1.875 C13.847,1.773 13.885,1.685 13.961,1.611 C14.037,1.537 14.127,1.500 14.231,1.500 L15.000,1.500 C15.105,1.500 15.195,1.537 15.271,1.611 C15.347,1.685 15.385,1.773 15.385,1.875 L15.385,5.250 C15.385,5.352 15.347,5.439 15.271,5.513 C15.195,5.588 15.105,5.625 15.000,5.625 L14.231,5.625 C14.127,5.625 14.037,5.588 13.961,5.513 ZM18.462,19.500 L15.000,19.500 L15.000,16.125 L18.462,16.125 L18.462,19.500 ZM18.462,15.375 L15.000,15.375 L15.000,11.625 L18.462,11.625 L18.462,15.375 ZM18.462,10.875 L15.000,10.875 L15.000,7.500 L18.462,7.500 L18.462,10.875 Z"/>
</g>
</svg>