<svg 
 xmlns="http://www.w3.org/2000/svg"
 xmlns:xlink="http://www.w3.org/1999/xlink"
 width="20px" height="21px">
<defs>
<filter id="Filter_0">
    <feFlood flood-color="rgb(30, 38, 51)" flood-opacity="1" result="floodOut" />
    <feComposite operator="atop" in="floodOut" in2="SourceGraphic" result="compOut" />
    <feBlend mode="normal" in="compOut" in2="SourceGraphic" />
</filter>

</defs>
<g filter="url(#Filter_0)">
<path fill-rule="evenodd"  fill="rgb(0, 0, 0)"
 d="M18.965,20.051 C18.274,20.685 17.355,21.001 16.209,21.001 L3.791,21.001 C2.645,21.001 1.726,20.685 1.035,20.051 C0.343,19.417 -0.003,18.554 -0.003,17.460 C-0.003,16.977 0.014,16.505 0.047,16.045 C0.080,15.584 0.147,15.087 0.246,14.554 C0.345,14.021 0.471,13.526 0.623,13.070 C0.774,12.615 0.978,12.170 1.233,11.737 C1.489,11.304 1.783,10.935 2.114,10.630 C2.446,10.324 2.851,10.081 3.329,9.898 C3.807,9.716 4.335,9.625 4.913,9.625 C4.998,9.625 5.197,9.723 5.510,9.919 C5.822,10.115 6.175,10.334 6.568,10.575 C6.961,10.817 7.473,11.036 8.103,11.231 C8.733,11.427 9.365,11.525 9.999,11.525 C10.634,11.525 11.266,11.427 11.896,11.231 C12.526,11.036 13.038,10.817 13.431,10.575 C13.824,10.334 14.176,10.115 14.489,9.919 C14.802,9.723 15.000,9.625 15.086,9.625 C15.664,9.625 16.192,9.716 16.670,9.898 C17.148,10.081 17.553,10.324 17.885,10.630 C18.216,10.935 18.510,11.304 18.766,11.737 C19.022,12.170 19.225,12.615 19.377,13.070 C19.528,13.526 19.654,14.021 19.754,14.554 C19.853,15.087 19.919,15.584 19.952,16.045 C19.986,16.505 20.002,16.977 20.002,17.460 C20.002,18.554 19.657,19.417 18.965,20.051 ZM10.000,10.500 C8.494,10.500 7.208,9.987 6.142,8.962 C5.077,7.936 4.544,6.699 4.544,5.249 C4.544,3.800 5.077,2.562 6.142,1.537 C7.208,0.511 8.494,-0.002 10.000,-0.002 C11.506,-0.002 12.792,0.511 13.857,1.537 C14.923,2.562 15.456,3.800 15.456,5.249 C15.456,6.699 14.923,7.936 13.857,8.962 C12.792,9.987 11.506,10.500 10.000,10.500 Z"/>
</g>
</svg>