<svg 
 xmlns="http://www.w3.org/2000/svg"
 xmlns:xlink="http://www.w3.org/1999/xlink"
 width="20px" height="20px">
<defs>
<filter id="Filter_0">
    <feFlood flood-color="rgb(30, 38, 51)" flood-opacity="1" result="floodOut" />
    <feComposite operator="atop" in="floodOut" in2="SourceGraphic" result="compOut" />
    <feBlend mode="normal" in="compOut" in2="SourceGraphic" />
</filter>

</defs>
<g filter="url(#Filter_0)">
<path fill-rule="evenodd"  fill="rgb(0, 0, 0)"
 d="M18.660,15.020 C17.766,16.552 16.553,17.766 15.020,18.660 C13.488,19.554 11.815,20.001 10.000,20.001 C8.186,20.001 6.512,19.554 4.980,18.660 C3.447,17.766 2.234,16.552 1.340,15.020 C0.446,13.488 -0.001,11.814 -0.001,10.000 C-0.001,8.186 0.446,6.512 1.340,4.980 C2.234,3.447 3.448,2.234 4.980,1.340 C6.512,0.446 8.186,-0.001 10.000,-0.001 C11.815,-0.001 13.488,0.446 15.021,1.340 C16.553,2.234 17.766,3.447 18.660,4.980 C19.554,6.512 20.001,8.185 20.001,10.000 C20.001,11.814 19.554,13.488 18.660,15.020 ZM16.134,6.445 C15.500,5.359 14.641,4.500 13.555,3.866 C12.470,3.232 11.285,2.916 10.000,2.916 C8.715,2.916 7.530,3.232 6.445,3.866 C5.360,4.500 4.500,5.359 3.867,6.445 C3.233,7.530 2.916,8.715 2.916,10.000 C2.916,11.285 3.233,12.470 3.867,13.555 C4.500,14.640 5.360,15.500 6.445,16.134 C7.530,16.767 8.715,17.084 10.000,17.084 C11.285,17.084 12.470,16.767 13.555,16.134 C14.641,15.500 15.500,14.640 16.134,13.555 C16.768,12.470 17.084,11.285 17.084,10.000 C17.084,8.715 16.768,7.530 16.134,6.445 ZM11.250,11.667 L7.083,11.667 C6.962,11.667 6.862,11.628 6.783,11.550 C6.705,11.471 6.666,11.372 6.666,11.250 L6.666,10.417 C6.666,10.295 6.705,10.195 6.783,10.117 C6.862,10.039 6.961,10.000 7.083,10.000 L10.000,10.000 L10.000,5.416 C10.000,5.294 10.039,5.194 10.117,5.116 C10.195,5.038 10.295,4.999 10.417,4.999 L11.250,4.999 C11.372,4.999 11.472,5.038 11.550,5.116 C11.628,5.195 11.667,5.294 11.667,5.416 L11.667,11.250 C11.667,11.372 11.628,11.471 11.550,11.550 C11.472,11.628 11.372,11.667 11.250,11.667 Z"/>
</g>
</svg>