<svg 
 xmlns="http://www.w3.org/2000/svg"
 xmlns:xlink="http://www.w3.org/1999/xlink"
 width="12px" height="12px">
<defs>
<filter id="Filter_0">
    <feFlood flood-color="rgb(30, 38, 51)" flood-opacity="1" result="floodOut" />
    <feComposite operator="atop" in="floodOut" in2="SourceGraphic" result="compOut" />
    <feBlend mode="normal" in="compOut" in2="SourceGraphic" />
</filter>

</defs>
<g filter="url(#Filter_0)">
<path fill-rule="evenodd"  fill="rgb(0, 0, 0)"
 d="M10.154,2.768 L10.154,4.615 L9.231,4.615 L9.231,2.768 L7.385,2.768 L7.385,1.845 L9.231,1.845 L9.231,-0.001 L10.154,-0.001 L10.154,1.845 L12.000,1.845 L12.000,2.768 L10.154,2.768 ZM5.711,0.569 C6.053,0.785 6.317,1.088 6.505,1.477 C6.692,1.867 6.786,2.273 6.786,2.696 C6.786,3.052 6.731,3.368 6.620,3.644 C6.509,3.921 6.375,4.143 6.216,4.312 C6.058,4.480 5.899,4.635 5.740,4.777 C5.582,4.919 5.447,5.065 5.337,5.217 C5.226,5.369 5.171,5.530 5.171,5.704 C5.171,5.829 5.210,5.951 5.290,6.072 C5.369,6.192 5.472,6.307 5.600,6.418 C5.727,6.529 5.868,6.644 6.022,6.764 C6.175,6.884 6.329,7.017 6.483,7.164 C6.637,7.311 6.778,7.469 6.905,7.640 C7.032,7.811 7.136,8.015 7.215,8.254 C7.294,8.491 7.334,8.747 7.334,9.021 C7.334,9.790 6.998,10.468 6.324,11.055 C5.594,11.685 4.584,12.000 3.295,12.000 C3.012,12.000 2.725,11.976 2.434,11.928 C2.143,11.880 1.849,11.799 1.554,11.686 C1.258,11.573 0.997,11.434 0.771,11.268 C0.545,11.102 0.360,10.888 0.216,10.626 C0.072,10.364 -0.000,10.072 -0.000,9.750 C-0.000,9.457 0.089,9.132 0.267,8.776 C0.420,8.469 0.651,8.203 0.959,7.979 C1.267,7.756 1.615,7.585 2.005,7.467 C2.394,7.349 2.767,7.263 3.122,7.207 C3.478,7.152 3.839,7.120 4.204,7.110 C3.896,6.711 3.743,6.353 3.743,6.035 C3.743,5.978 3.747,5.921 3.757,5.866 C3.767,5.810 3.779,5.764 3.793,5.725 C3.808,5.687 3.827,5.635 3.851,5.570 C3.875,5.505 3.892,5.453 3.901,5.415 C3.709,5.439 3.541,5.451 3.397,5.451 C2.680,5.451 2.066,5.215 1.554,4.744 C1.042,4.274 0.786,3.682 0.786,2.970 C0.786,2.297 1.014,1.695 1.471,1.164 C1.928,0.633 2.490,0.293 3.158,0.144 C3.610,0.047 4.060,-0.001 4.507,-0.001 L7.658,-0.001 L6.685,0.569 L5.711,0.569 ZM3.512,7.593 C3.262,7.627 3.002,7.687 2.733,7.773 C2.464,7.860 2.228,7.971 2.026,8.105 C1.824,8.240 1.658,8.420 1.528,8.646 C1.399,8.872 1.334,9.129 1.334,9.418 C1.334,9.745 1.419,10.037 1.590,10.294 C1.760,10.552 1.984,10.753 2.260,10.900 C2.537,11.046 2.827,11.156 3.130,11.228 C3.432,11.300 3.738,11.336 4.045,11.336 C4.329,11.336 4.600,11.306 4.857,11.246 C5.114,11.186 5.356,11.092 5.582,10.964 C5.808,10.837 5.987,10.661 6.119,10.435 C6.251,10.209 6.317,9.944 6.317,9.642 C6.317,9.540 6.306,9.443 6.285,9.349 C6.263,9.255 6.240,9.169 6.216,9.090 C6.192,9.010 6.150,8.928 6.090,8.841 C6.030,8.754 5.979,8.681 5.939,8.621 C5.898,8.561 5.834,8.490 5.747,8.408 C5.661,8.327 5.595,8.265 5.549,8.224 C5.503,8.183 5.427,8.122 5.318,8.040 C5.210,7.959 5.136,7.903 5.095,7.874 C5.054,7.845 4.975,7.791 4.857,7.708 C4.739,7.627 4.666,7.577 4.637,7.557 C4.555,7.547 4.435,7.543 4.276,7.543 C4.017,7.543 3.762,7.560 3.512,7.593 ZM5.333,2.505 C5.253,2.180 5.140,1.867 4.994,1.564 C4.847,1.261 4.645,1.011 4.388,0.814 C4.131,0.617 3.844,0.518 3.526,0.518 C3.079,0.518 2.733,0.684 2.488,1.016 C2.242,1.348 2.120,1.744 2.120,2.206 C2.120,2.432 2.147,2.670 2.203,2.920 C2.258,3.170 2.343,3.420 2.459,3.670 C2.574,3.920 2.709,4.145 2.863,4.344 C3.016,4.544 3.204,4.706 3.425,4.831 C3.646,4.956 3.880,5.019 4.125,5.019 C4.591,5.019 4.929,4.873 5.138,4.582 C5.347,4.292 5.452,3.905 5.452,3.425 C5.452,3.136 5.412,2.830 5.333,2.505 Z"/>
</g>
</svg>