<svg 
 xmlns="http://www.w3.org/2000/svg"
 xmlns:xlink="http://www.w3.org/1999/xlink"
 width="15px" height="12px">
<defs>
<filter id="Filter_0">
    <feFlood flood-color="rgb(30, 38, 51)" flood-opacity="1" result="floodOut" />
    <feComposite operator="atop" in="floodOut" in2="SourceGraphic" result="compOut" />
    <feBlend mode="normal" in="compOut" in2="SourceGraphic" />
</filter>

</defs>
<g filter="url(#Filter_0)">
<path fill-rule="evenodd"  fill="rgb(0, 0, 0)"
 d="M15.002,1.426 C14.411,1.676 13.821,1.832 13.231,1.895 C13.897,1.501 14.348,0.945 14.583,0.226 C13.973,0.582 13.323,0.826 12.631,0.957 C12.022,0.320 11.273,0.001 10.384,0.001 C9.534,0.001 8.809,0.297 8.209,0.887 C7.609,1.477 7.310,2.191 7.310,3.029 C7.310,3.253 7.335,3.485 7.386,3.722 C6.129,3.659 4.950,3.349 3.849,2.789 C2.748,2.230 1.813,1.485 1.046,0.554 C0.766,1.022 0.627,1.532 0.627,2.082 C0.627,2.600 0.750,3.081 0.998,3.525 C1.245,3.968 1.579,4.328 1.998,4.603 C1.502,4.584 1.039,4.456 0.608,4.218 L0.608,4.256 C0.608,4.987 0.841,5.629 1.307,6.182 C1.774,6.735 2.362,7.084 3.073,7.227 C2.807,7.296 2.537,7.330 2.264,7.330 C2.086,7.330 1.893,7.315 1.683,7.283 C1.880,7.890 2.242,8.388 2.769,8.778 C3.295,9.169 3.892,9.370 4.558,9.383 C3.441,10.245 2.169,10.676 0.741,10.676 C0.468,10.676 0.221,10.664 -0.002,10.639 C1.426,11.545 3.000,11.997 4.720,11.997 C5.812,11.997 6.837,11.828 7.795,11.487 C8.753,11.147 9.572,10.690 10.251,10.118 C10.930,9.547 11.516,8.889 12.007,8.146 C12.499,7.402 12.866,6.626 13.107,5.817 C13.348,5.007 13.469,4.197 13.469,3.384 C13.469,3.210 13.466,3.078 13.459,2.991 C14.062,2.560 14.576,2.038 15.002,1.426 Z"/>
</g>
</svg>